<svg xmlns="http://www.w3.org/2000/svg" xmlns:xlink="http://www.w3.org/1999/xlink" width="500" zoomAndPan="magnify" viewBox="0 0 375 374.999991" height="500" preserveAspectRatio="xMidYMid meet" version="1.0"><defs><g/><clipPath id="2a4bc0056d"><path d="M 63.171875 71.054688 L 312 71.054688 L 312 195.554688 L 63.171875 195.554688 Z M 63.171875 71.054688 " clip-rule="nonzero"/></clipPath><clipPath id="dad2cb7eee"><path d="M 174 87.285156 L 202 87.285156 L 202 114 L 174 114 Z M 174 87.285156 " clip-rule="nonzero"/></clipPath><clipPath id="5f0a2371a6"><path d="M 195.113281 278.9375 L 226.660156 278.9375 L 226.660156 287.535156 L 195.113281 287.535156 Z M 195.113281 278.9375 " clip-rule="nonzero"/></clipPath><clipPath id="437434de7c"><path d="M 269.359375 206.445312 L 287.640625 206.445312 L 287.640625 233 L 269.359375 233 Z M 269.359375 206.445312 " clip-rule="nonzero"/></clipPath><clipPath id="18f0fcb410"><path d="M 276 180 L 287.660156 180 L 287.660156 211 L 276 211 Z M 276 180 " clip-rule="nonzero"/></clipPath><clipPath id="c2f0da0b20"><path d="M 87.410156 205 L 106 205 L 106 233 L 87.410156 233 Z M 87.410156 205 " clip-rule="nonzero"/></clipPath><clipPath id="d00f4837b7"><path d="M 87.410156 179 L 99 179 L 99 210 L 87.410156 210 Z M 87.410156 179 " clip-rule="nonzero"/></clipPath><clipPath id="b7165364d9"><path d="M 187.523438 273.011719 L 193.453125 273.011719 L 193.453125 287.535156 L 187.523438 287.535156 Z M 187.523438 273.011719 " clip-rule="nonzero"/></clipPath><clipPath id="1fefb3da54"><path d="M 181.59375 273.011719 L 187.523438 273.011719 L 187.523438 287.535156 L 181.59375 287.535156 Z M 181.59375 273.011719 " clip-rule="nonzero"/></clipPath><clipPath id="89309880d4"><path d="M 60.996094 205.058594 L 72.414062 205.058594 L 72.414062 216.476562 L 60.996094 216.476562 Z M 60.996094 205.058594 " clip-rule="nonzero"/></clipPath><clipPath id="b2699ec5e8"><path d="M 66.707031 205.058594 C 63.554688 205.058594 60.996094 207.613281 60.996094 210.765625 C 60.996094 213.917969 63.554688 216.476562 66.707031 216.476562 C 69.859375 216.476562 72.414062 213.917969 72.414062 210.765625 C 72.414062 207.613281 69.859375 205.058594 66.707031 205.058594 Z M 66.707031 205.058594 " clip-rule="nonzero"/></clipPath><clipPath id="536dac7f49"><path d="M 0.996094 0.0585938 L 12.414062 0.0585938 L 12.414062 11.476562 L 0.996094 11.476562 Z M 0.996094 0.0585938 " clip-rule="nonzero"/></clipPath><clipPath id="9b97c28b20"><path d="M 6.707031 0.0585938 C 3.554688 0.0585938 0.996094 2.613281 0.996094 5.765625 C 0.996094 8.917969 3.554688 11.476562 6.707031 11.476562 C 9.859375 11.476562 12.414062 8.917969 12.414062 5.765625 C 12.414062 2.613281 9.859375 0.0585938 6.707031 0.0585938 Z M 6.707031 0.0585938 " clip-rule="nonzero"/></clipPath><clipPath id="949d61322c"><rect x="0" width="13" y="0" height="12"/></clipPath><clipPath id="1719b436fe"><path d="M 302.585938 205.058594 L 314.003906 205.058594 L 314.003906 216.476562 L 302.585938 216.476562 Z M 302.585938 205.058594 " clip-rule="nonzero"/></clipPath><clipPath id="33a309af87"><path d="M 308.292969 205.058594 C 305.140625 205.058594 302.585938 207.613281 302.585938 210.765625 C 302.585938 213.917969 305.140625 216.476562 308.292969 216.476562 C 311.445312 216.476562 314.003906 213.917969 314.003906 210.765625 C 314.003906 207.613281 311.445312 205.058594 308.292969 205.058594 Z M 308.292969 205.058594 " clip-rule="nonzero"/></clipPath><clipPath id="8410bcdd65"><path d="M 0.585938 0.0585938 L 12.003906 0.0585938 L 12.003906 11.476562 L 0.585938 11.476562 Z M 0.585938 0.0585938 " clip-rule="nonzero"/></clipPath><clipPath id="fb6ec6a44f"><path d="M 6.292969 0.0585938 C 3.140625 0.0585938 0.585938 2.613281 0.585938 5.765625 C 0.585938 8.917969 3.140625 11.476562 6.292969 11.476562 C 9.445312 11.476562 12.003906 8.917969 12.003906 5.765625 C 12.003906 2.613281 9.445312 0.0585938 6.292969 0.0585938 Z M 6.292969 0.0585938 " clip-rule="nonzero"/></clipPath><clipPath id="d818a94255"><rect x="0" width="13" y="0" height="12"/></clipPath></defs><g clip-path="url(#2a4bc0056d)"><path fill="#17344e" d="M 311.808594 195.378906 L 306.703125 195.378906 C 306.703125 129.648438 253.222656 76.167969 187.492188 76.167969 C 121.761719 76.167969 68.277344 129.648438 68.277344 195.378906 L 63.171875 195.378906 C 63.171875 126.832031 118.941406 71.0625 187.492188 71.0625 C 256.042969 71.0625 311.808594 126.832031 311.808594 195.378906 Z M 311.808594 195.378906 " fill-opacity="1" fill-rule="nonzero"/></g><path fill="#17344e" d="M 188.402344 202.132812 C 188.402344 202.132812 222.253906 185.84375 245.6875 206.09375 L 237.308594 192.417969 C 236.238281 190.671875 234.550781 189.410156 232.585938 188.902344 C 223.589844 186.574219 197.664062 181.898438 188.402344 202.132812 " fill-opacity="1" fill-rule="nonzero"/><path fill="#17344e" d="M 188.402344 193.328125 C 188.402344 193.328125 202.289062 170.4375 242.21875 184.523438 L 230.640625 168.15625 C 228.773438 165.515625 226.058594 163.621094 222.953125 162.820312 C 213.574219 160.398438 193.65625 157.003906 188.402344 169.996094 L 188.402344 193.328125 " fill-opacity="1" fill-rule="nonzero"/><path fill="#17344e" d="M 186.664062 202.132812 C 186.664062 202.132812 152.8125 185.84375 129.378906 206.09375 L 137.546875 192.761719 C 138.769531 190.765625 140.710938 189.34375 142.957031 188.78125 C 152.355469 186.421875 177.5625 182.246094 186.664062 202.132812 " fill-opacity="1" fill-rule="nonzero"/><path fill="#17344e" d="M 186.664062 193.328125 C 186.664062 193.328125 172.777344 170.4375 132.847656 184.523438 L 144.421875 168.15625 C 146.292969 165.515625 149.007812 163.621094 152.113281 162.820312 C 161.492188 160.398438 181.410156 157.003906 186.664062 169.996094 L 186.664062 193.328125 " fill-opacity="1" fill-rule="nonzero"/><path fill="#17344e" d="M 245.6875 214.292969 L 129.378906 214.292969 L 129.378906 210.660156 L 245.6875 210.660156 L 245.6875 214.292969 " fill-opacity="1" fill-rule="nonzero"/><g clip-path="url(#dad2cb7eee)"><path fill="#b3902f" d="M 188.265625 106.960938 L 179.90625 113.382812 L 183.347656 103.332031 L 174.738281 97.253906 L 185.226562 97.46875 L 188.265625 87.285156 L 191.304688 97.46875 L 201.792969 97.253906 L 193.183594 103.332031 L 196.625 113.382812 L 188.265625 106.960938 " fill-opacity="1" fill-rule="nonzero"/></g><path fill="#b3902f" d="M 214.640625 114.785156 L 209.914062 118.417969 L 211.859375 112.734375 L 206.992188 109.296875 L 212.921875 109.417969 L 214.640625 103.664062 L 216.359375 109.417969 L 222.285156 109.296875 L 217.417969 112.734375 L 219.363281 118.417969 L 214.640625 114.785156 " fill-opacity="1" fill-rule="nonzero"/><path fill="#b3902f" d="M 160.425781 114.785156 L 155.699219 118.417969 L 157.644531 112.734375 L 152.78125 109.296875 L 158.707031 109.417969 L 160.425781 103.664062 L 162.144531 109.417969 L 168.074219 109.296875 L 163.207031 112.734375 L 165.152344 118.417969 L 160.425781 114.785156 " fill-opacity="1" fill-rule="nonzero"/><path fill="#b3902f" d="M 218.875 263.648438 C 218.875 263.648438 218.570312 263.769531 218.023438 263.980469 C 217.480469 264.191406 216.71875 264.5625 215.769531 264.929688 C 214.816406 265.289062 213.71875 265.804688 212.503906 266.300781 C 211.277344 266.769531 209.984375 267.421875 208.617188 267.96875 C 207.941406 268.261719 207.253906 268.578125 206.570312 268.914062 C 205.886719 269.238281 205.195312 269.539062 204.515625 269.890625 C 203.835938 270.222656 203.171875 270.621094 202.515625 270.96875 C 201.859375 271.324219 201.222656 271.699219 200.613281 272.105469 C 199.398438 272.9375 198.285156 273.777344 197.371094 274.746094 C 196.460938 275.71875 195.742188 276.816406 195.328125 278.050781 C 195.21875 278.382812 195.515625 278.714844 196.003906 278.796875 C 197.820312 279.097656 199.628906 279.183594 201.351562 278.902344 C 202.214844 278.777344 203.0625 278.625 203.878906 278.386719 C 204.695312 278.132812 205.488281 277.839844 206.25 277.511719 C 209.304688 276.199219 211.832031 274.148438 213.734375 272.082031 C 214.695312 271.078125 215.480469 269.957031 216.144531 268.992188 C 216.8125 268.015625 217.335938 267.097656 217.734375 266.285156 C 218.53125 264.679688 218.875 263.648438 218.875 263.648438 " fill-opacity="1" fill-rule="nonzero"/><g clip-path="url(#5f0a2371a6)"><path fill="#b3902f" d="M 226.425781 285.1875 C 226.425781 285.1875 226.007812 285.316406 225.269531 285.542969 C 224.523438 285.75 223.472656 286.097656 222.160156 286.371094 C 220.84375 286.632812 219.3125 286.976562 217.617188 287.175781 C 215.921875 287.347656 214.109375 287.582031 212.234375 287.539062 C 211.300781 287.539062 210.359375 287.515625 209.429688 287.472656 C 208.496094 287.410156 207.5625 287.28125 206.65625 287.148438 C 205.75 287 204.863281 286.863281 204.007812 286.625 C 203.152344 286.390625 202.335938 286.125 201.5625 285.828125 C 200.019531 285.257812 198.667969 284.460938 197.601562 283.53125 C 196.53125 282.609375 195.753906 281.550781 195.328125 280.339844 C 195.214844 280.015625 195.523438 279.664062 196.011719 279.558594 C 197.835938 279.152344 199.617188 279.050781 201.359375 278.988281 C 202.230469 278.96875 203.09375 279.027344 203.949219 279.082031 C 204.804688 279.121094 205.652344 279.203125 206.492188 279.324219 C 209.84375 279.789062 213.085938 280.601562 216.015625 281.488281 C 217.488281 281.964844 218.847656 282.34375 220.101562 282.792969 C 221.351562 283.242188 222.46875 283.644531 223.40625 283.980469 C 225.28125 284.667969 226.425781 285.1875 226.425781 285.1875 " fill-opacity="1" fill-rule="nonzero"/></g><path fill="#b3902f" d="M 236.257812 254.410156 C 236.257812 254.410156 236 254.613281 235.535156 254.980469 C 235.308594 255.167969 235.035156 255.398438 234.714844 255.660156 C 234.390625 255.914062 234.023438 256.203125 233.617188 256.515625 C 232.816406 257.15625 231.894531 257.949219 230.851562 258.753906 C 230.335938 259.171875 229.808594 259.617188 229.269531 260.082031 C 228.710938 260.519531 228.148438 260.976562 227.582031 261.460938 C 226.46875 262.464844 225.273438 263.394531 224.175781 264.476562 C 223.058594 265.519531 221.972656 266.558594 221.042969 267.710938 C 220.078125 268.789062 219.253906 269.941406 218.648438 271.152344 C 218.039062 272.355469 217.636719 273.5625 217.574219 274.859375 C 217.554688 275.207031 217.9375 275.453125 218.433594 275.40625 C 219.359375 275.34375 220.246094 275.148438 221.105469 274.90625 C 221.96875 274.664062 222.8125 274.390625 223.605469 274.03125 C 225.179688 273.261719 226.664062 272.417969 227.925781 271.300781 C 228.5625 270.757812 229.164062 270.195312 229.726562 269.621094 C 230.285156 269.035156 230.789062 268.394531 231.265625 267.777344 C 231.734375 267.148438 232.175781 266.527344 232.570312 265.894531 C 232.953125 265.242188 233.304688 264.59375 233.621094 263.960938 C 233.933594 263.328125 234.214844 262.707031 234.46875 262.109375 C 234.710938 261.496094 234.914062 260.890625 235.097656 260.320312 C 235.457031 259.175781 235.71875 258.152344 235.890625 257.285156 C 236.210938 255.503906 236.257812 254.410156 236.257812 254.410156 " fill-opacity="1" fill-rule="nonzero"/><path fill="#b3902f" d="M 249.398438 272.980469 C 249.398438 272.980469 249.035156 273.226562 248.390625 273.65625 C 248.066406 273.867188 247.671875 274.121094 247.214844 274.414062 C 246.746094 274.683594 246.210938 274.980469 245.625 275.3125 C 244.449219 275.960938 243.066406 276.710938 241.488281 277.367188 C 240.707031 277.703125 239.890625 278.050781 239.050781 278.378906 C 238.191406 278.675781 237.3125 278.96875 236.421875 279.238281 C 234.65625 279.820312 232.765625 280.167969 230.960938 280.453125 C 229.140625 280.699219 227.335938 280.730469 225.703125 280.628906 C 224.042969 280.453125 222.535156 280.101562 221.261719 279.535156 C 219.988281 278.957031 218.933594 278.109375 218.195312 277.0625 C 217.996094 276.777344 218.199219 276.363281 218.644531 276.136719 C 219.480469 275.730469 220.300781 275.324219 221.132812 274.980469 C 221.957031 274.632812 222.800781 274.367188 223.636719 274.113281 C 225.285156 273.542969 227 273.273438 228.652344 272.96875 C 229.488281 272.832031 230.324219 272.734375 231.164062 272.667969 C 231.996094 272.589844 232.808594 272.503906 233.628906 272.464844 C 234.445312 272.414062 235.265625 272.402344 236.0625 272.390625 C 236.847656 272.359375 237.628906 272.347656 238.390625 272.351562 C 239.152344 272.359375 239.898438 272.378906 240.621094 272.410156 C 241.335938 272.429688 242.023438 272.449219 242.675781 272.464844 C 243.984375 272.519531 245.183594 272.609375 246.183594 272.691406 C 248.160156 272.8125 249.398438 272.980469 249.398438 272.980469 " fill-opacity="1" fill-rule="nonzero"/><path fill="#b3902f" d="M 250.476562 240.652344 C 250.476562 240.652344 249.703125 241.738281 248.507812 243.417969 C 248.214844 243.84375 247.898438 244.304688 247.558594 244.800781 C 247.203125 245.28125 246.835938 245.796875 246.457031 246.34375 C 245.726562 247.464844 244.859375 248.605469 244.050781 249.871094 C 243.226562 251.117188 242.359375 252.382812 241.589844 253.722656 C 240.769531 254.992188 240.074219 256.390625 239.445312 257.695312 C 238.816406 259.007812 238.367188 260.390625 238.09375 261.6875 C 237.820312 262.992188 237.78125 264.300781 238.078125 265.558594 C 238.15625 265.898438 238.585938 266.023438 239.046875 265.835938 C 242.503906 264.476562 245.164062 261.976562 247.054688 259.230469 C 248.925781 256.4375 250.027344 253.378906 250.53125 250.578125 C 251.074219 247.800781 251.023438 245.273438 250.898438 243.515625 C 250.84375 242.640625 250.710938 241.902344 250.628906 241.414062 C 250.539062 240.921875 250.476562 240.652344 250.476562 240.652344 " fill-opacity="1" fill-rule="nonzero"/><path fill="#b3902f" d="M 268.144531 254.847656 C 268.144531 254.847656 267.074219 256.246094 265.152344 258.136719 C 264.671875 258.613281 264.164062 259.136719 263.589844 259.660156 C 263.007812 260.175781 262.386719 260.714844 261.734375 261.265625 C 260.449219 262.386719 258.929688 263.449219 257.378906 264.484375 C 255.816406 265.507812 254.125 266.402344 252.464844 267.171875 C 250.75 267.875 249.097656 268.503906 247.453125 268.800781 C 245.8125 269.097656 244.292969 269.226562 242.894531 269.003906 C 241.5 268.785156 240.277344 268.300781 239.277344 267.496094 C 239.007812 267.28125 239.089844 266.824219 239.453125 266.476562 C 242.171875 263.910156 245.109375 262.042969 248.210938 260.632812 C 251.265625 259.183594 254.476562 258.167969 257.394531 257.3125 C 260.347656 256.496094 262.992188 255.851562 264.96875 255.453125 C 265.949219 255.257812 266.742188 255.101562 267.289062 254.992188 C 267.839844 254.898438 268.144531 254.847656 268.144531 254.847656 " fill-opacity="1" fill-rule="nonzero"/><path fill="#b3902f" d="M 260.40625 223.476562 C 260.40625 223.476562 260.296875 223.792969 260.101562 224.351562 C 259.890625 224.902344 259.597656 225.695312 259.269531 226.679688 C 258.601562 228.636719 257.640625 231.257812 256.746094 234.125 C 255.785156 236.945312 254.910156 240.035156 254.425781 242.921875 C 254.007812 245.847656 253.988281 248.589844 255.253906 250.875 C 255.421875 251.179688 255.867188 251.175781 256.257812 250.863281 C 256.980469 250.285156 257.660156 249.667969 258.285156 249.015625 C 258.875 248.335938 259.417969 247.628906 259.914062 246.902344 C 260.160156 246.539062 260.398438 246.171875 260.617188 245.796875 C 260.824219 245.414062 261.019531 245.027344 261.203125 244.636719 C 261.570312 243.859375 261.894531 243.070312 262.171875 242.28125 C 262.664062 240.664062 263.015625 239.066406 263.160156 237.496094 C 263.277344 235.90625 263.3125 234.417969 263.164062 232.992188 C 263.019531 231.570312 262.792969 230.269531 262.523438 229.113281 C 262.21875 227.945312 261.882812 226.929688 261.574219 226.097656 C 260.976562 224.445312 260.40625 223.476562 260.40625 223.476562 " fill-opacity="1" fill-rule="nonzero"/><path fill="#b3902f" d="M 281.253906 232.15625 C 281.253906 232.15625 281.097656 232.570312 280.765625 233.277344 C 280.417969 233.976562 279.914062 234.976562 279.273438 236.164062 C 278.660156 237.371094 277.765625 238.695312 276.835938 240.132812 C 275.894531 241.570312 274.714844 243.007812 273.527344 244.453125 C 271.019531 247.257812 268.113281 249.859375 265.136719 251.363281 C 262.210938 252.917969 259.261719 253.375 256.933594 252.402344 C 256.621094 252.269531 256.570312 251.808594 256.820312 251.367188 C 257.289062 250.546875 257.800781 249.785156 258.339844 249.0625 C 258.851562 248.316406 259.398438 247.617188 259.980469 246.953125 C 260.269531 246.625 260.570312 246.304688 260.871094 245.992188 C 261.160156 245.667969 261.457031 245.351562 261.761719 245.046875 C 262.371094 244.433594 263.003906 243.855469 263.660156 243.308594 C 264.914062 242.167969 266.28125 241.160156 267.613281 240.199219 C 268.921875 239.226562 270.316406 238.371094 271.59375 237.546875 C 272.871094 236.726562 274.132812 235.992188 275.296875 235.34375 C 276.421875 234.675781 277.464844 234.101562 278.355469 233.628906 C 280.152344 232.695312 281.253906 232.15625 281.253906 232.15625 " fill-opacity="1" fill-rule="nonzero"/><path fill="#b3902f" d="M 265.238281 204.191406 C 265.238281 204.191406 265.109375 205.519531 265.027344 207.589844 C 264.9375 208.621094 264.886719 209.839844 264.828125 211.175781 C 264.707031 212.492188 264.710938 213.957031 264.621094 215.445312 C 264.546875 216.9375 264.558594 218.496094 264.542969 220.023438 C 264.546875 220.789062 264.589844 221.5625 264.636719 222.320312 C 264.664062 223.070312 264.71875 223.816406 264.8125 224.546875 C 265.023438 226.015625 265.289062 227.394531 265.75 228.652344 C 266.210938 229.910156 266.886719 231.050781 267.785156 231.957031 C 268.027344 232.199219 268.46875 232.082031 268.75 231.667969 C 269.808594 230.140625 270.664062 228.527344 271.171875 226.832031 C 271.429688 225.984375 271.679688 225.152344 271.804688 224.296875 C 271.9375 223.441406 272.023438 222.589844 272.066406 221.753906 C 272.125 220.921875 272.09375 220.085938 272.023438 219.265625 C 271.953125 218.449219 271.851562 217.652344 271.722656 216.882812 C 271.4375 215.335938 270.96875 213.871094 270.492188 212.558594 C 269.992188 211.238281 269.363281 210.039062 268.792969 209.007812 C 268.226562 207.980469 267.613281 207.097656 267.070312 206.382812 C 266 204.953125 265.238281 204.191406 265.238281 204.191406 " fill-opacity="1" fill-rule="nonzero"/><g clip-path="url(#437434de7c)"><path fill="#b3902f" d="M 287.644531 206.65625 C 287.644531 206.65625 287.574219 207.089844 287.453125 207.863281 C 287.316406 208.632812 287.144531 209.738281 286.839844 211.0625 C 286.503906 212.378906 286.113281 213.921875 285.589844 215.5625 C 284.996094 217.1875 284.40625 218.9375 283.570312 220.640625 C 282.75 222.34375 281.871094 224.039062 280.796875 225.566406 C 280.273438 226.335938 279.75 227.078125 279.183594 227.761719 C 278.601562 228.441406 278.007812 229.074219 277.40625 229.652344 C 276.226562 230.8125 274.933594 231.703125 273.644531 232.273438 C 272.359375 232.847656 271.089844 233.101562 269.816406 232.953125 C 269.472656 232.914062 269.316406 232.492188 269.429688 231.996094 C 269.863281 230.148438 270.542969 228.480469 271.246094 226.863281 C 271.605469 226.054688 272.050781 225.296875 272.453125 224.53125 C 272.859375 223.769531 273.304688 223.035156 273.777344 222.320312 C 274.261719 221.609375 274.742188 220.910156 275.214844 220.21875 C 275.703125 219.535156 276.214844 218.867188 276.742188 218.226562 C 277.769531 216.929688 278.78125 215.691406 279.839844 214.554688 C 280.871094 213.410156 281.828125 212.339844 282.769531 211.386719 C 283.707031 210.445312 284.546875 209.597656 285.253906 208.882812 C 286.679688 207.476562 287.644531 206.65625 287.644531 206.65625 " fill-opacity="1" fill-rule="nonzero"/></g><path fill="#b3902f" d="M 264.625 184.257812 C 264.625 184.257812 264.699219 184.582031 264.828125 185.160156 C 264.972656 185.738281 265.101562 186.574219 265.335938 187.585938 C 265.453125 188.089844 265.582031 188.640625 265.71875 189.226562 C 265.832031 189.8125 265.964844 190.4375 266.113281 191.089844 C 266.441406 192.390625 266.71875 193.808594 267.085938 195.265625 C 267.183594 195.628906 267.28125 195.996094 267.378906 196.367188 L 267.644531 197.476562 C 267.832031 198.21875 268.039062 198.960938 268.273438 199.699219 C 268.714844 201.175781 269.160156 202.621094 269.777344 203.976562 C 270.875 206.667969 272.429688 209.015625 274.625 210.253906 C 274.921875 210.421875 275.308594 210.179688 275.484375 209.707031 C 275.839844 208.835938 276.019531 207.933594 276.199219 207.042969 C 276.351562 206.152344 276.492188 205.265625 276.503906 204.378906 C 276.507812 202.609375 276.40625 200.886719 275.960938 199.25 C 275.558594 197.613281 275.023438 196.070312 274.292969 194.660156 C 273.941406 193.957031 273.570312 193.28125 273.191406 192.644531 C 272.808594 192.007812 272.359375 191.40625 271.9375 190.84375 C 270.273438 188.574219 268.378906 186.925781 267.003906 185.847656 C 266.324219 185.304688 265.707031 184.914062 265.289062 184.648438 C 264.867188 184.386719 264.625 184.257812 264.625 184.257812 " fill-opacity="1" fill-rule="nonzero"/><g clip-path="url(#18f0fcb410)"><path fill="#b3902f" d="M 286.839844 180.394531 C 286.839844 180.394531 287.148438 182.140625 287.253906 184.859375 C 287.28125 185.535156 287.328125 186.269531 287.332031 187.054688 C 287.320312 187.839844 287.296875 188.667969 287.261719 189.527344 C 287.222656 191.25 287.003906 193.097656 286.710938 194.960938 C 286.636719 195.421875 286.558594 195.890625 286.480469 196.355469 L 286.15625 197.746094 C 285.929688 198.667969 285.679688 199.578125 285.40625 200.460938 C 284.835938 202.226562 284.074219 203.886719 283.273438 205.332031 C 281.53125 208.21875 279.40625 210.21875 276.847656 210.640625 C 276.511719 210.699219 276.234375 210.335938 276.226562 209.828125 C 276.238281 208.890625 276.203125 207.957031 276.273438 207.054688 C 276.324219 206.148438 276.472656 205.265625 276.585938 204.386719 C 276.804688 202.636719 277.3125 200.953125 277.757812 199.3125 C 278.25 197.671875 278.882812 196.082031 279.480469 194.550781 C 279.796875 193.785156 280.128906 193.035156 280.476562 192.300781 C 280.8125 191.570312 281.144531 190.855469 281.464844 190.160156 C 282.84375 187.390625 284.132812 184.960938 285.164062 183.203125 C 285.675781 182.332031 286.089844 181.625 286.378906 181.140625 C 286.675781 180.660156 286.839844 180.394531 286.839844 180.394531 " fill-opacity="1" fill-rule="nonzero"/></g><path fill="#b3902f" d="M 258.652344 165.308594 C 258.652344 165.308594 258.804688 165.601562 259.070312 166.128906 C 259.335938 166.65625 259.730469 167.40625 260.246094 168.304688 C 260.730469 169.214844 261.277344 170.292969 261.949219 171.445312 C 262.558594 172.621094 263.269531 173.878906 264.011719 175.175781 C 264.699219 176.488281 265.5625 177.796875 266.335938 179.101562 C 266.738281 179.75 267.164062 180.386719 267.609375 181 C 268.050781 181.617188 268.460938 182.222656 268.925781 182.789062 C 269.382812 183.359375 269.863281 183.902344 270.363281 184.398438 C 270.863281 184.898438 271.34375 185.363281 271.871094 185.769531 C 272.917969 186.585938 274.066406 187.191406 275.316406 187.472656 C 275.652344 187.550781 275.945312 187.210938 275.976562 186.710938 C 276.035156 185.777344 276.03125 184.855469 275.972656 183.949219 C 275.882812 183.046875 275.710938 182.164062 275.511719 181.308594 C 275.136719 179.582031 274.398438 177.992188 273.621094 176.519531 C 272.8125 175.054688 271.792969 173.746094 270.785156 172.574219 C 269.699219 171.425781 268.582031 170.421875 267.484375 169.566406 C 266.332031 168.730469 265.210938 168.039062 264.183594 167.476562 C 263.167969 166.90625 262.15625 166.503906 261.34375 166.175781 C 260.519531 165.859375 259.851562 165.644531 259.386719 165.503906 C 258.925781 165.363281 258.652344 165.308594 258.652344 165.308594 " fill-opacity="1" fill-rule="nonzero"/><path fill="#b3902f" d="M 278.929688 155.332031 C 278.929688 155.332031 279.117188 155.734375 279.402344 156.460938 C 279.691406 157.1875 280.09375 158.230469 280.550781 159.503906 C 280.980469 160.792969 281.40625 162.328125 281.84375 163.996094 C 282.214844 165.683594 282.574219 167.507812 282.792969 169.382812 C 282.960938 171.277344 283.136719 173.179688 283.011719 175.054688 C 282.96875 175.988281 282.898438 176.902344 282.789062 177.785156 C 282.675781 178.667969 282.476562 179.53125 282.269531 180.339844 C 282.058594 181.152344 281.808594 181.921875 281.519531 182.628906 C 281.226562 183.339844 280.851562 184 280.457031 184.589844 C 279.660156 185.765625 278.703125 186.667969 277.558594 187.226562 C 277.25 187.378906 276.878906 187.105469 276.722656 186.625 C 276.4375 185.722656 276.210938 184.828125 276.046875 183.9375 C 275.851562 183.050781 275.691406 182.171875 275.59375 181.292969 C 275.429688 179.527344 275.289062 177.804688 275.371094 176.078125 C 275.414062 174.359375 275.503906 172.675781 275.742188 171.011719 C 275.902344 169.371094 276.15625 167.765625 276.449219 166.234375 C 276.691406 164.722656 276.980469 163.285156 277.277344 161.972656 C 277.582031 160.65625 277.808594 159.503906 278.0625 158.511719 C 278.304688 157.53125 278.523438 156.730469 278.679688 156.183594 C 278.839844 155.636719 278.929688 155.332031 278.929688 155.332031 " fill-opacity="1" fill-rule="nonzero"/><path fill="#b3902f" d="M 247.691406 148.773438 C 247.691406 148.773438 247.917969 149.015625 248.320312 149.449219 C 248.730469 149.871094 249.324219 150.476562 250.046875 151.207031 C 250.738281 151.964844 251.621094 152.804688 252.542969 153.757812 C 253.4375 154.722656 254.519531 155.703125 255.542969 156.769531 C 256.070312 157.292969 256.621094 157.8125 257.191406 158.324219 C 257.730469 158.855469 258.285156 159.378906 258.859375 159.882812 C 260.039062 160.875 261.152344 161.867188 262.367188 162.691406 C 263.601562 163.507812 264.746094 164.25 266.007812 164.722656 C 266.628906 164.964844 267.261719 165.148438 267.894531 165.261719 C 268.519531 165.382812 269.144531 165.429688 269.777344 165.394531 C 270.121094 165.371094 270.320312 164.960938 270.226562 164.464844 C 269.40625 160.816406 267.566406 157.667969 265.144531 155.351562 C 262.785156 152.984375 259.945312 151.398438 257.339844 150.402344 C 256.058594 149.882812 254.738281 149.570312 253.601562 149.3125 C 253.027344 149.1875 252.484375 149.085938 251.976562 149.003906 C 251.453125 148.9375 250.96875 148.886719 250.527344 148.851562 C 248.761719 148.707031 247.691406 148.773438 247.691406 148.773438 " fill-opacity="1" fill-rule="nonzero"/><path fill="#b3902f" d="M 264.46875 133.511719 C 264.46875 133.511719 264.742188 133.851562 265.226562 134.460938 C 265.699219 135.078125 266.40625 135.941406 267.160156 137.058594 C 267.898438 138.191406 268.789062 139.5 269.621094 141.007812 C 270.429688 142.53125 271.320312 144.144531 272 145.914062 C 272.355469 146.789062 272.695312 147.675781 273.011719 148.566406 C 273.292969 149.476562 273.550781 150.390625 273.773438 151.292969 C 274.25 153.082031 274.453125 154.90625 274.515625 156.574219 C 274.59375 158.234375 274.339844 159.828125 273.933594 161.167969 C 273.71875 161.84375 273.449219 162.464844 273.109375 163.023438 C 272.761719 163.585938 272.34375 164.089844 271.867188 164.523438 C 271.609375 164.753906 271.1875 164.59375 270.917969 164.167969 C 268.804688 161.050781 267.621094 157.734375 266.699219 154.433594 C 265.851562 151.105469 265.351562 147.765625 265.042969 144.679688 C 264.917969 143.121094 264.746094 141.699219 264.683594 140.347656 C 264.617188 139.007812 264.558594 137.808594 264.507812 136.800781 C 264.425781 134.78125 264.46875 133.511719 264.46875 133.511719 " fill-opacity="1" fill-rule="nonzero"/><path fill="#b3902f" d="M 232.664062 135.933594 C 232.664062 135.933594 232.949219 136.101562 233.453125 136.398438 C 233.960938 136.695312 234.710938 137.082031 235.585938 137.617188 C 236.457031 138.144531 237.550781 138.683594 238.675781 139.371094 C 239.839844 140.011719 241.09375 140.710938 242.382812 141.421875 C 245.019531 142.800781 247.789062 144.289062 250.566406 145.203125 C 251.929688 145.6875 253.28125 146.035156 254.621094 146.144531 C 255.957031 146.25 257.203125 146.175781 258.410156 145.738281 C 258.734375 145.625 258.8125 145.175781 258.585938 144.726562 C 258.175781 143.878906 257.652344 143.128906 257.109375 142.40625 C 256.558594 141.695312 256 140.996094 255.359375 140.398438 C 254.070312 139.199219 252.71875 138.144531 251.230469 137.378906 C 250.496094 136.984375 249.761719 136.625 249.019531 136.316406 C 248.257812 136.03125 247.5 135.785156 246.753906 135.574219 C 245.273438 135.132812 243.769531 134.921875 242.378906 134.804688 C 241 134.667969 239.675781 134.703125 238.496094 134.796875 C 237.308594 134.890625 236.296875 135.007812 235.417969 135.203125 C 233.679688 135.566406 232.664062 135.933594 232.664062 135.933594 " fill-opacity="1" fill-rule="nonzero"/><path fill="#b3902f" d="M 244.652344 116.578125 C 244.652344 116.578125 245.011719 116.828125 245.644531 117.269531 C 246.273438 117.722656 247.183594 118.355469 248.203125 119.238281 C 249.226562 120.117188 250.453125 121.105469 251.640625 122.347656 C 252.242188 122.957031 252.863281 123.597656 253.480469 124.257812 C 254.09375 124.929688 254.675781 125.667969 255.261719 126.394531 C 257.621094 129.316406 259.570312 132.746094 260.578125 135.925781 C 261.0625 137.539062 261.300781 139.097656 261.265625 140.503906 C 261.234375 141.914062 260.855469 143.226562 260.179688 144.316406 C 259.996094 144.613281 259.546875 144.582031 259.167969 144.246094 C 258.484375 143.617188 257.789062 143.007812 257.167969 142.355469 C 256.535156 141.714844 255.984375 141.011719 255.417969 140.339844 C 254.289062 138.996094 253.375 137.507812 252.476562 136.0625 C 252.039062 135.328125 251.640625 134.574219 251.257812 133.816406 C 250.855469 133.082031 250.484375 132.332031 250.132812 131.582031 C 249.453125 130.054688 248.800781 128.589844 248.234375 127.152344 C 247.6875 125.695312 247.164062 124.339844 246.71875 123.089844 C 246.265625 121.839844 245.917969 120.65625 245.59375 119.714844 C 244.960938 117.808594 244.652344 116.578125 244.652344 116.578125 " fill-opacity="1" fill-rule="nonzero"/><path fill="#b3902f" d="M 223.652344 115.621094 C 223.652344 115.621094 224.082031 115.695312 224.84375 115.828125 C 225.605469 115.945312 226.679688 116.230469 227.972656 116.574219 C 228.617188 116.753906 229.320312 116.949219 230.0625 117.160156 C 230.796875 117.410156 231.570312 117.683594 232.371094 117.980469 C 233.976562 118.546875 235.652344 119.316406 237.316406 120.167969 C 238.152344 120.578125 238.96875 121.054688 239.765625 121.5625 C 240.5625 122.0625 241.34375 122.578125 242.09375 123.109375 C 243.5625 124.246094 244.914062 125.417969 246.007812 126.675781 C 247.089844 127.964844 247.949219 129.257812 248.484375 130.5625 C 249 131.902344 249.199219 133.222656 249.019531 134.503906 C 248.972656 134.847656 248.542969 135.007812 248.066406 134.863281 C 246.296875 134.289062 244.609375 133.683594 243.078125 132.832031 C 242.296875 132.4375 241.535156 132.03125 240.804688 131.570312 C 240.074219 131.113281 239.371094 130.613281 238.667969 130.144531 C 237.273438 129.183594 235.980469 128.070312 234.722656 127.03125 C 234.097656 126.492188 233.496094 125.941406 232.910156 125.382812 C 232.328125 124.828125 231.75 124.316406 231.203125 123.777344 C 229.015625 121.597656 227.121094 119.628906 225.785156 118.085938 C 225.121094 117.328125 224.582031 116.71875 224.214844 116.292969 C 223.851562 115.859375 223.652344 115.621094 223.652344 115.621094 " fill-opacity="1" fill-rule="nonzero"/><path fill="#b3902f" d="M 156.191406 262.691406 C 156.191406 262.691406 156.496094 262.8125 157.039062 263.027344 C 157.585938 263.234375 158.347656 263.605469 159.296875 263.972656 C 160.25 264.335938 161.347656 264.847656 162.5625 265.347656 C 163.789062 265.8125 165.082031 266.464844 166.449219 267.011719 C 167.125 267.304688 167.8125 267.621094 168.496094 267.960938 C 169.179688 268.28125 169.871094 268.582031 170.550781 268.933594 C 171.230469 269.265625 171.894531 269.664062 172.550781 270.015625 C 173.207031 270.367188 173.84375 270.746094 174.453125 271.148438 C 175.667969 271.980469 176.78125 272.820312 177.695312 273.789062 C 178.605469 274.765625 179.324219 275.859375 179.738281 277.09375 C 179.847656 277.425781 179.550781 277.757812 179.0625 277.839844 C 177.246094 278.144531 175.4375 278.226562 173.714844 277.945312 C 172.851562 277.820312 172.003906 277.667969 171.1875 277.429688 C 170.371094 277.175781 169.578125 276.882812 168.816406 276.554688 C 165.761719 275.242188 163.234375 273.191406 161.332031 271.125 C 160.371094 270.125 159.585938 269 158.921875 268.035156 C 158.253906 267.058594 157.726562 266.144531 157.332031 265.328125 C 156.535156 263.722656 156.191406 262.691406 156.191406 262.691406 " fill-opacity="1" fill-rule="nonzero"/><path fill="#b3902f" d="M 148.640625 284.230469 C 148.640625 284.230469 149.058594 284.359375 149.796875 284.585938 C 150.539062 284.792969 151.59375 285.140625 152.90625 285.414062 C 154.222656 285.675781 155.753906 286.019531 157.449219 286.222656 C 159.144531 286.394531 160.957031 286.625 162.832031 286.582031 C 163.765625 286.582031 164.703125 286.5625 165.636719 286.515625 C 166.570312 286.457031 167.503906 286.324219 168.410156 286.191406 C 169.316406 286.042969 170.203125 285.90625 171.058594 285.667969 C 171.914062 285.433594 172.730469 285.167969 173.503906 284.871094 C 175.046875 284.300781 176.398438 283.503906 177.464844 282.574219 C 178.53125 281.652344 179.3125 280.59375 179.738281 279.382812 C 179.851562 279.058594 179.542969 278.710938 179.054688 278.601562 C 177.226562 278.195312 175.449219 278.097656 173.707031 278.03125 C 172.835938 278.011719 171.972656 278.070312 171.113281 278.125 C 170.261719 278.164062 169.414062 278.246094 168.574219 278.367188 C 165.222656 278.832031 161.980469 279.644531 159.050781 280.53125 C 157.578125 281.007812 156.21875 281.386719 154.964844 281.835938 C 153.714844 282.285156 152.597656 282.6875 151.660156 283.027344 C 149.785156 283.710938 148.640625 284.230469 148.640625 284.230469 " fill-opacity="1" fill-rule="nonzero"/><path fill="#b3902f" d="M 138.808594 253.453125 C 138.808594 253.453125 139.066406 253.660156 139.527344 254.023438 C 139.757812 254.210938 140.03125 254.441406 140.351562 254.703125 C 140.675781 254.957031 141.042969 255.246094 141.449219 255.558594 C 142.25 256.199219 143.171875 256.992188 144.214844 257.800781 C 144.730469 258.214844 145.257812 258.660156 145.796875 259.125 C 146.355469 259.5625 146.917969 260.023438 147.484375 260.503906 C 148.597656 261.507812 149.792969 262.4375 150.890625 263.519531 C 152.003906 264.5625 153.089844 265.601562 154.023438 266.753906 C 154.984375 267.832031 155.8125 268.984375 156.417969 270.195312 C 157.027344 271.398438 157.429688 272.605469 157.492188 273.90625 C 157.511719 274.25 157.128906 274.496094 156.632812 274.453125 C 155.707031 274.386719 154.820312 274.191406 153.957031 273.953125 C 153.097656 273.707031 152.253906 273.433594 151.460938 273.074219 C 149.886719 272.304688 148.402344 271.460938 147.140625 270.34375 C 146.503906 269.800781 145.902344 269.238281 145.339844 268.664062 C 144.78125 268.078125 144.277344 267.441406 143.800781 266.820312 C 143.332031 266.191406 142.890625 265.570312 142.496094 264.9375 C 142.109375 264.285156 141.761719 263.636719 141.445312 263.003906 C 141.132812 262.371094 140.847656 261.753906 140.597656 261.152344 C 140.355469 260.539062 140.152344 259.933594 139.96875 259.363281 C 139.609375 258.21875 139.347656 257.199219 139.175781 256.328125 C 138.855469 254.550781 138.808594 253.453125 138.808594 253.453125 " fill-opacity="1" fill-rule="nonzero"/><path fill="#b3902f" d="M 125.667969 272.027344 C 125.667969 272.027344 126.03125 272.269531 126.675781 272.703125 C 127 272.910156 127.394531 273.164062 127.851562 273.460938 C 128.320312 273.726562 128.855469 274.027344 129.441406 274.355469 C 130.617188 275.003906 132 275.753906 133.578125 276.410156 C 134.359375 276.75 135.175781 277.09375 136.015625 277.421875 C 136.875 277.71875 137.753906 278.011719 138.644531 278.285156 C 140.410156 278.863281 142.300781 279.210938 144.105469 279.496094 C 145.925781 279.742188 147.726562 279.773438 149.363281 279.671875 C 151.023438 279.496094 152.53125 279.144531 153.804688 278.578125 C 155.078125 278 156.132812 277.152344 156.871094 276.105469 C 157.066406 275.820312 156.867188 275.40625 156.421875 275.179688 C 155.585938 274.777344 154.761719 274.367188 153.933594 274.023438 C 153.105469 273.675781 152.265625 273.410156 151.429688 273.15625 C 149.78125 272.589844 148.066406 272.316406 146.414062 272.011719 C 145.578125 271.875 144.742188 271.78125 143.902344 271.710938 C 143.070312 271.636719 142.257812 271.546875 141.4375 271.507812 C 140.621094 271.457031 139.800781 271.445312 139.003906 271.433594 C 138.21875 271.402344 137.4375 271.394531 136.675781 271.398438 C 135.914062 271.402344 135.167969 271.421875 134.445312 271.453125 C 133.730469 271.472656 133.042969 271.492188 132.390625 271.507812 C 131.078125 271.5625 129.882812 271.652344 128.882812 271.734375 C 126.90625 271.855469 125.667969 272.027344 125.667969 272.027344 " fill-opacity="1" fill-rule="nonzero"/><path fill="#b3902f" d="M 124.589844 239.695312 C 124.589844 239.695312 125.363281 240.785156 126.558594 242.460938 C 126.851562 242.886719 127.167969 243.351562 127.507812 243.84375 C 127.863281 244.324219 128.230469 244.839844 128.609375 245.386719 C 129.339844 246.507812 130.207031 247.648438 131.015625 248.914062 C 131.839844 250.160156 132.707031 251.425781 133.476562 252.765625 C 134.296875 254.039062 134.992188 255.433594 135.621094 256.742188 C 136.25 258.050781 136.699219 259.433594 136.972656 260.730469 C 137.246094 262.035156 137.285156 263.34375 136.988281 264.605469 C 136.910156 264.941406 136.480469 265.066406 136.019531 264.878906 C 132.5625 263.519531 129.902344 261.023438 128.011719 258.277344 C 126.140625 255.480469 125.039062 252.421875 124.535156 249.621094 C 123.992188 246.84375 124.042969 244.316406 124.167969 242.558594 C 124.222656 241.683594 124.355469 240.945312 124.4375 240.460938 C 124.527344 239.964844 124.589844 239.695312 124.589844 239.695312 " fill-opacity="1" fill-rule="nonzero"/><path fill="#b3902f" d="M 106.921875 253.890625 C 106.921875 253.890625 107.992188 255.289062 109.914062 257.179688 C 110.390625 257.65625 110.902344 258.179688 111.476562 258.703125 C 112.058594 259.21875 112.679688 259.757812 113.332031 260.308594 C 114.617188 261.429688 116.136719 262.492188 117.6875 263.527344 C 119.25 264.550781 120.941406 265.445312 122.601562 266.214844 C 124.316406 266.917969 125.96875 267.546875 127.613281 267.84375 C 129.253906 268.140625 130.773438 268.269531 132.167969 268.046875 C 133.566406 267.832031 134.789062 267.34375 135.789062 266.542969 C 136.058594 266.324219 135.976562 265.871094 135.613281 265.519531 C 132.894531 262.957031 129.957031 261.085938 126.855469 259.675781 C 123.800781 258.226562 120.589844 257.210938 117.671875 256.355469 C 114.71875 255.539062 112.074219 254.894531 110.097656 254.5 C 109.117188 254.304688 108.324219 254.144531 107.777344 254.035156 C 107.226562 253.941406 106.921875 253.890625 106.921875 253.890625 " fill-opacity="1" fill-rule="nonzero"/><path fill="#b3902f" d="M 114.660156 222.519531 C 114.660156 222.519531 114.769531 222.835938 114.964844 223.394531 C 115.175781 223.945312 115.46875 224.742188 115.796875 225.722656 C 116.460938 227.683594 117.425781 230.300781 118.320312 233.167969 C 119.28125 235.988281 120.15625 239.078125 120.640625 241.964844 C 121.058594 244.890625 121.078125 247.632812 119.8125 249.917969 C 119.644531 250.222656 119.199219 250.21875 118.808594 249.910156 C 118.085938 249.328125 117.40625 248.710938 116.78125 248.058594 C 116.191406 247.378906 115.648438 246.671875 115.152344 245.945312 C 114.90625 245.582031 114.667969 245.214844 114.449219 244.839844 C 114.242188 244.457031 114.046875 244.070312 113.863281 243.679688 C 113.496094 242.902344 113.171875 242.113281 112.894531 241.328125 C 112.398438 239.707031 112.050781 238.113281 111.90625 236.539062 C 111.789062 234.953125 111.753906 233.460938 111.902344 232.039062 C 112.046875 230.613281 112.273438 229.3125 112.542969 228.160156 C 112.847656 226.988281 113.183594 225.972656 113.492188 225.140625 C 114.089844 223.488281 114.660156 222.519531 114.660156 222.519531 " fill-opacity="1" fill-rule="nonzero"/><path fill="#b3902f" d="M 93.8125 231.203125 C 93.8125 231.203125 93.96875 231.613281 94.300781 232.320312 C 94.648438 233.019531 95.152344 234.019531 95.792969 235.210938 C 96.40625 236.414062 97.300781 237.738281 98.230469 239.175781 C 99.171875 240.613281 100.351562 242.050781 101.535156 243.496094 C 104.046875 246.304688 106.953125 248.902344 109.929688 250.40625 C 112.855469 251.960938 115.800781 252.417969 118.132812 251.445312 C 118.445312 251.3125 118.496094 250.851562 118.246094 250.410156 C 117.777344 249.59375 117.265625 248.828125 116.726562 248.105469 C 116.214844 247.359375 115.667969 246.660156 115.085938 246 C 114.796875 245.667969 114.496094 245.347656 114.195312 245.035156 C 113.90625 244.710938 113.609375 244.394531 113.304688 244.089844 C 112.695312 243.476562 112.0625 242.898438 111.402344 242.351562 C 110.152344 241.210938 108.785156 240.203125 107.453125 239.242188 C 106.144531 238.269531 104.75 237.414062 103.472656 236.59375 C 102.195312 235.769531 100.933594 235.039062 99.769531 234.386719 C 98.644531 233.71875 97.601562 233.144531 96.710938 232.675781 C 94.914062 231.738281 93.8125 231.203125 93.8125 231.203125 " fill-opacity="1" fill-rule="nonzero"/><path fill="#b3902f" d="M 109.828125 203.234375 C 109.828125 203.234375 109.953125 204.5625 110.039062 206.636719 C 110.128906 207.664062 110.179688 208.882812 110.238281 210.21875 C 110.359375 211.539062 110.355469 213.003906 110.445312 214.488281 C 110.519531 215.980469 110.507812 217.542969 110.523438 219.066406 C 110.519531 219.832031 110.476562 220.605469 110.429688 221.363281 C 110.402344 222.113281 110.347656 222.859375 110.253906 223.589844 C 110.042969 225.0625 109.777344 226.441406 109.316406 227.695312 C 108.851562 228.953125 108.179688 230.09375 107.28125 231 C 107.039062 231.246094 106.597656 231.125 106.316406 230.710938 C 105.257812 229.183594 104.402344 227.570312 103.894531 225.875 C 103.636719 225.03125 103.386719 224.195312 103.261719 223.339844 C 103.128906 222.484375 103.042969 221.632812 103 220.796875 C 102.941406 219.964844 102.96875 219.128906 103.042969 218.308594 C 103.113281 217.492188 103.214844 216.695312 103.34375 215.925781 C 103.628906 214.378906 104.097656 212.914062 104.574219 211.601562 C 105.074219 210.28125 105.703125 209.082031 106.273438 208.054688 C 106.839844 207.023438 107.453125 206.140625 107.996094 205.425781 C 109.066406 204 109.828125 203.234375 109.828125 203.234375 " fill-opacity="1" fill-rule="nonzero"/><g clip-path="url(#c2f0da0b20)"><path fill="#b3902f" d="M 87.421875 205.699219 C 87.421875 205.699219 87.492188 206.136719 87.613281 206.90625 C 87.75 207.675781 87.921875 208.785156 88.222656 210.105469 C 88.5625 211.421875 88.953125 212.964844 89.476562 214.605469 C 90.070312 216.230469 90.660156 217.984375 91.496094 219.683594 C 92.3125 221.386719 93.195312 223.082031 94.269531 224.609375 C 94.792969 225.378906 95.316406 226.121094 95.882812 226.804688 C 96.464844 227.484375 97.058594 228.117188 97.660156 228.695312 C 98.839844 229.855469 100.132812 230.746094 101.421875 231.316406 C 102.707031 231.890625 103.976562 232.148438 105.25 232 C 105.59375 231.957031 105.75 231.535156 105.636719 231.039062 C 105.203125 229.195312 104.523438 227.523438 103.820312 225.90625 C 103.460938 225.101562 103.015625 224.339844 102.613281 223.578125 C 102.207031 222.8125 101.761719 222.078125 101.289062 221.363281 C 100.804688 220.652344 100.324219 219.953125 99.847656 219.261719 C 99.363281 218.578125 98.851562 217.914062 98.324219 217.269531 C 97.296875 215.972656 96.285156 214.738281 95.226562 213.597656 C 94.195312 212.457031 93.238281 211.382812 92.296875 210.433594 C 91.359375 209.488281 90.519531 208.640625 89.8125 207.929688 C 88.386719 206.519531 87.421875 205.699219 87.421875 205.699219 " fill-opacity="1" fill-rule="nonzero"/></g><path fill="#b3902f" d="M 110.441406 183.300781 C 110.441406 183.300781 110.367188 183.625 110.238281 184.203125 C 110.09375 184.78125 109.964844 185.621094 109.730469 186.628906 C 109.613281 187.132812 109.484375 187.683594 109.347656 188.269531 C 109.234375 188.859375 109.101562 189.480469 108.953125 190.132812 C 108.625 191.433594 108.347656 192.851562 107.980469 194.308594 C 107.882812 194.675781 107.785156 195.039062 107.6875 195.410156 L 107.421875 196.519531 C 107.234375 197.261719 107.027344 198.003906 106.792969 198.742188 C 106.351562 200.21875 105.90625 201.664062 105.289062 203.019531 C 104.191406 205.710938 102.636719 208.058594 100.441406 209.296875 C 100.140625 209.464844 99.757812 209.222656 99.582031 208.75 C 99.226562 207.878906 99.042969 206.976562 98.867188 206.089844 C 98.714844 205.195312 98.570312 204.308594 98.5625 203.425781 C 98.558594 201.652344 98.660156 199.929688 99.105469 198.292969 C 99.507812 196.65625 100.042969 195.117188 100.773438 193.703125 C 101.125 193 101.496094 192.328125 101.875 191.6875 C 102.257812 191.050781 102.707031 190.453125 103.128906 189.886719 C 104.792969 187.617188 106.6875 185.96875 108.0625 184.894531 C 108.742188 184.347656 109.359375 183.957031 109.777344 183.695312 C 110.199219 183.429688 110.441406 183.300781 110.441406 183.300781 " fill-opacity="1" fill-rule="nonzero"/><g clip-path="url(#d00f4837b7)"><path fill="#b3902f" d="M 88.226562 179.441406 C 88.226562 179.441406 87.917969 181.1875 87.8125 183.902344 C 87.78125 184.578125 87.738281 185.316406 87.734375 186.097656 C 87.746094 186.882812 87.769531 187.710938 87.804688 188.570312 C 87.839844 190.292969 88.0625 192.144531 88.351562 194.003906 C 88.429688 194.46875 88.507812 194.933594 88.585938 195.398438 L 88.910156 196.789062 C 89.136719 197.710938 89.386719 198.621094 89.660156 199.503906 C 90.230469 201.273438 90.992188 202.929688 91.792969 204.375 C 93.535156 207.265625 95.660156 209.261719 98.21875 209.683594 C 98.554688 209.742188 98.832031 209.378906 98.839844 208.875 C 98.828125 207.933594 98.863281 207.003906 98.792969 206.097656 C 98.742188 205.191406 98.59375 204.308594 98.480469 203.433594 C 98.261719 201.679688 97.753906 199.996094 97.308594 198.355469 C 96.816406 196.714844 96.183594 195.125 95.585938 193.59375 C 95.269531 192.828125 94.9375 192.078125 94.589844 191.34375 C 94.253906 190.613281 93.921875 189.898438 93.601562 189.207031 C 92.222656 186.433594 90.933594 184.003906 89.902344 182.246094 C 89.390625 181.375 88.976562 180.671875 88.6875 180.183594 C 88.390625 179.703125 88.226562 179.441406 88.226562 179.441406 " fill-opacity="1" fill-rule="nonzero"/></g><path fill="#b3902f" d="M 116.414062 164.351562 C 116.414062 164.351562 116.261719 164.648438 115.996094 165.171875 C 115.730469 165.699219 115.332031 166.449219 114.820312 167.347656 C 114.335938 168.257812 113.789062 169.335938 113.117188 170.488281 C 112.507812 171.667969 111.796875 172.925781 111.054688 174.21875 C 110.367188 175.53125 109.503906 176.839844 108.730469 178.144531 C 108.328125 178.792969 107.902344 179.429688 107.457031 180.042969 C 107.015625 180.660156 106.605469 181.265625 106.140625 181.835938 C 105.683594 182.402344 105.203125 182.945312 104.703125 183.441406 C 104.203125 183.941406 103.722656 184.40625 103.195312 184.8125 C 102.148438 185.628906 101 186.234375 99.75 186.519531 C 99.414062 186.59375 99.121094 186.257812 99.089844 185.753906 C 99.027344 184.824219 99.035156 183.898438 99.09375 182.992188 C 99.183594 182.089844 99.351562 181.210938 99.554688 180.351562 C 99.929688 178.625 100.667969 177.035156 101.445312 175.5625 C 102.253906 174.097656 103.273438 172.789062 104.277344 171.617188 C 105.367188 170.46875 106.484375 169.464844 107.582031 168.613281 C 108.734375 167.777344 109.851562 167.082031 110.882812 166.519531 C 111.898438 165.949219 112.910156 165.546875 113.722656 165.222656 C 114.546875 164.902344 115.214844 164.6875 115.679688 164.546875 C 116.140625 164.40625 116.414062 164.351562 116.414062 164.351562 " fill-opacity="1" fill-rule="nonzero"/><path fill="#b3902f" d="M 96.136719 154.375 C 96.136719 154.375 95.949219 154.777344 95.664062 155.503906 C 95.375 156.230469 94.972656 157.273438 94.515625 158.546875 C 94.085938 159.835938 93.660156 161.375 93.222656 163.039062 C 92.851562 164.726562 92.492188 166.550781 92.273438 168.429688 C 92.105469 170.320312 91.929688 172.222656 92.054688 174.101562 C 92.097656 175.03125 92.167969 175.945312 92.277344 176.828125 C 92.386719 177.710938 92.589844 178.574219 92.792969 179.382812 C 93.007812 180.195312 93.257812 180.964844 93.546875 181.675781 C 93.839844 182.386719 94.214844 183.042969 94.609375 183.632812 C 95.402344 184.808594 96.363281 185.710938 97.507812 186.269531 C 97.816406 186.421875 98.1875 186.148438 98.34375 185.667969 C 98.628906 184.765625 98.855469 183.871094 99.019531 182.980469 C 99.214844 182.09375 99.375 181.214844 99.472656 180.335938 C 99.636719 178.570312 99.777344 176.847656 99.695312 175.121094 C 99.652344 173.402344 99.5625 171.71875 99.320312 170.054688 C 99.164062 168.414062 98.910156 166.808594 98.617188 165.277344 C 98.375 163.765625 98.085938 162.328125 97.789062 161.015625 C 97.484375 159.699219 97.257812 158.546875 97.003906 157.558594 C 96.761719 156.574219 96.542969 155.777344 96.386719 155.226562 C 96.226562 154.679688 96.136719 154.375 96.136719 154.375 " fill-opacity="1" fill-rule="nonzero"/><path fill="#b3902f" d="M 127.375 147.816406 C 127.375 147.816406 127.148438 148.0625 126.746094 148.492188 C 126.332031 148.914062 125.742188 149.519531 125.019531 150.253906 C 124.328125 151.007812 123.445312 151.847656 122.523438 152.800781 C 121.625 153.769531 120.546875 154.746094 119.523438 155.8125 C 118.996094 156.335938 118.445312 156.855469 117.875 157.367188 C 117.335938 157.898438 116.78125 158.421875 116.207031 158.925781 C 115.027344 159.917969 113.914062 160.910156 112.699219 161.734375 C 111.464844 162.550781 110.320312 163.292969 109.058594 163.769531 C 108.4375 164.007812 107.804688 164.191406 107.171875 164.304688 C 106.546875 164.425781 105.921875 164.472656 105.289062 164.4375 C 104.945312 164.417969 104.746094 164.003906 104.839844 163.507812 C 105.65625 159.859375 107.5 156.710938 109.921875 154.394531 C 112.28125 152.027344 115.121094 150.445312 117.726562 149.445312 C 119.007812 148.925781 120.328125 148.613281 121.464844 148.355469 C 122.039062 148.230469 122.582031 148.128906 123.089844 148.050781 C 123.613281 147.980469 124.097656 147.933594 124.539062 147.894531 C 126.304688 147.753906 127.375 147.816406 127.375 147.816406 " fill-opacity="1" fill-rule="nonzero"/><path fill="#b3902f" d="M 110.597656 132.554688 C 110.597656 132.554688 110.324219 132.894531 109.835938 133.503906 C 109.367188 134.121094 108.660156 134.984375 107.90625 136.101562 C 107.167969 137.234375 106.277344 138.542969 105.445312 140.050781 C 104.636719 141.574219 103.746094 143.191406 103.066406 144.960938 C 102.710938 145.835938 102.371094 146.722656 102.054688 147.609375 C 101.769531 148.519531 101.515625 149.433594 101.292969 150.335938 C 100.816406 152.125 100.613281 153.953125 100.550781 155.617188 C 100.472656 157.277344 100.726562 158.871094 101.132812 160.210938 C 101.347656 160.886719 101.617188 161.507812 101.957031 162.066406 C 102.304688 162.628906 102.722656 163.132812 103.199219 163.566406 C 103.457031 163.796875 103.878906 163.636719 104.148438 163.210938 C 106.261719 160.09375 107.445312 156.777344 108.363281 153.476562 C 109.214844 150.148438 109.714844 146.808594 110.023438 143.722656 C 110.148438 142.164062 110.316406 140.742188 110.382812 139.394531 C 110.449219 138.050781 110.507812 136.851562 110.558594 135.84375 C 110.640625 133.828125 110.597656 132.554688 110.597656 132.554688 " fill-opacity="1" fill-rule="nonzero"/><path fill="#b3902f" d="M 142.402344 134.976562 C 142.402344 134.976562 142.117188 135.144531 141.613281 135.445312 C 141.105469 135.738281 140.355469 136.125 139.480469 136.660156 C 138.605469 137.191406 137.515625 137.730469 136.390625 138.414062 C 135.226562 139.054688 133.972656 139.753906 132.683594 140.464844 C 130.046875 141.84375 127.277344 143.332031 124.5 144.25 C 123.136719 144.730469 121.785156 145.078125 120.445312 145.1875 C 119.109375 145.292969 117.863281 145.21875 116.65625 144.785156 C 116.332031 144.667969 116.253906 144.21875 116.480469 143.769531 C 116.890625 142.921875 117.414062 142.171875 117.957031 141.449219 C 118.507812 140.738281 119.066406 140.039062 119.707031 139.441406 C 120.992188 138.242188 122.347656 137.191406 123.835938 136.421875 C 124.570312 136.027344 125.304688 135.667969 126.046875 135.363281 C 126.808594 135.074219 127.566406 134.828125 128.3125 134.617188 C 129.792969 134.175781 131.296875 133.964844 132.6875 133.847656 C 134.066406 133.710938 135.390625 133.746094 136.570312 133.839844 C 137.753906 133.933594 138.765625 134.050781 139.648438 134.246094 C 141.386719 134.609375 142.402344 134.976562 142.402344 134.976562 " fill-opacity="1" fill-rule="nonzero"/><path fill="#b3902f" d="M 130.414062 115.621094 C 130.414062 115.621094 130.054688 115.871094 129.421875 116.3125 C 128.792969 116.765625 127.882812 117.398438 126.863281 118.28125 C 125.839844 119.160156 124.613281 120.148438 123.425781 121.390625 C 122.824219 122 122.203125 122.640625 121.585938 123.304688 C 120.972656 123.972656 120.390625 124.710938 119.804688 125.441406 C 117.445312 128.359375 115.496094 131.792969 114.488281 134.96875 C 114.003906 136.582031 113.765625 138.140625 113.800781 139.546875 C 113.832031 140.957031 114.210938 142.269531 114.886719 143.363281 C 115.070312 143.65625 115.519531 143.625 115.898438 143.292969 C 116.582031 142.660156 117.277344 142.050781 117.898438 141.402344 C 118.53125 140.757812 119.082031 140.054688 119.644531 139.382812 C 120.777344 138.039062 121.691406 136.550781 122.589844 135.105469 C 123.027344 134.375 123.425781 133.617188 123.808594 132.859375 C 124.210938 132.125 124.582031 131.375 124.933594 130.625 C 125.613281 129.097656 126.265625 127.636719 126.828125 126.195312 C 127.378906 124.738281 127.902344 123.386719 128.347656 122.132812 C 128.800781 120.882812 129.148438 119.699219 129.472656 118.757812 C 130.105469 116.851562 130.414062 115.621094 130.414062 115.621094 " fill-opacity="1" fill-rule="nonzero"/><path fill="#b3902f" d="M 151.414062 114.664062 C 151.414062 114.664062 150.984375 114.738281 150.222656 114.871094 C 149.460938 114.988281 148.386719 115.273438 147.09375 115.617188 C 146.449219 115.796875 145.746094 115.992188 145.003906 116.203125 C 144.269531 116.453125 143.496094 116.730469 142.695312 117.027344 C 141.089844 117.589844 139.414062 118.363281 137.75 119.210938 C 136.914062 119.621094 136.097656 120.097656 135.300781 120.605469 C 134.503906 121.105469 133.722656 121.621094 132.972656 122.15625 C 131.503906 123.289062 130.152344 124.460938 129.058594 125.722656 C 127.972656 127.007812 127.113281 128.300781 126.582031 129.609375 C 126.066406 130.945312 125.867188 132.265625 126.046875 133.546875 C 126.09375 133.890625 126.523438 134.050781 127 133.90625 C 128.769531 133.332031 130.457031 132.726562 131.988281 131.875 C 132.769531 131.480469 133.53125 131.074219 134.261719 130.613281 C 134.992188 130.160156 135.695312 129.65625 136.398438 129.1875 C 137.792969 128.226562 139.085938 127.113281 140.34375 126.074219 C 140.96875 125.539062 141.570312 124.984375 142.15625 124.429688 C 142.738281 123.875 143.316406 123.359375 143.863281 122.820312 C 146.050781 120.640625 147.945312 118.671875 149.28125 117.128906 C 149.945312 116.371094 150.484375 115.761719 150.851562 115.339844 C 151.214844 114.902344 151.414062 114.664062 151.414062 114.664062 " fill-opacity="1" fill-rule="nonzero"/><g clip-path="url(#b7165364d9)"><path fill="#b3902f" d="M 187.691406 274.53125 C 187.691406 274.53125 190.039062 275.644531 193.292969 273.226562 C 193.292969 273.226562 190.21875 281.0625 193.292969 287.542969 C 193.292969 287.542969 190.21875 284.933594 187.691406 287.542969 L 187.691406 274.53125 " fill-opacity="1" fill-rule="nonzero"/></g><g clip-path="url(#1fefb3da54)"><path fill="#b3902f" d="M 187.375 274.53125 C 187.375 274.53125 185.027344 275.644531 181.773438 273.226562 C 181.773438 273.226562 184.84375 281.0625 181.773438 287.542969 C 181.773438 287.542969 184.84375 284.933594 187.375 287.542969 L 187.375 274.53125 " fill-opacity="1" fill-rule="nonzero"/></g><g clip-path="url(#89309880d4)"><g clip-path="url(#b2699ec5e8)"><g transform="matrix(1, 0, 0, 1, 60, 205)"><g clip-path="url(#949d61322c)"><g clip-path="url(#536dac7f49)"><g clip-path="url(#9b97c28b20)"><path fill="#b3902f" d="M 0.996094 0.0585938 L 12.414062 0.0585938 L 12.414062 11.476562 L 0.996094 11.476562 Z M 0.996094 0.0585938 " fill-opacity="1" fill-rule="nonzero"/></g></g></g></g></g></g><g clip-path="url(#1719b436fe)"><g clip-path="url(#33a309af87)"><g transform="matrix(1, 0, 0, 1, 302, 205)"><g clip-path="url(#d818a94255)"><g clip-path="url(#8410bcdd65)"><g clip-path="url(#fb6ec6a44f)"><path fill="#b3902f" d="M 0.585938 0.0585938 L 12.003906 0.0585938 L 12.003906 11.476562 L 0.585938 11.476562 Z M 0.585938 0.0585938 " fill-opacity="1" fill-rule="nonzero"/></g></g></g></g></g></g><g fill="#17344e" fill-opacity="1"><g transform="translate(150.733998, 234.724789)"><g><path d="M 0.984375 0 L 0.984375 -14.296875 L 11.625 -14.296875 L 11.625 -11.359375 L 4.578125 -11.359375 L 4.578125 -8.21875 L 10.3125 -8.21875 L 10.3125 -5.28125 L 4.578125 -5.28125 L 4.578125 0 Z M 0.984375 0 "/></g></g></g><g fill="#17344e" fill-opacity="1"><g transform="translate(162.769245, 234.724789)"><g><path d="M -0.015625 0 L 5.15625 -14.296875 L 8.765625 -14.296875 L 13.921875 0 L 10.3125 0 L 9.40625 -2.984375 L 4.5 -2.984375 L 3.578125 0 Z M 5.3125 -5.71875 L 8.59375 -5.71875 L 6.984375 -11 L 6.9375 -11 Z M 5.3125 -5.71875 "/></g></g></g><g fill="#17344e" fill-opacity="1"><g transform="translate(176.703742, 234.724789)"><g><path d="M 0.984375 0 L 0.984375 -14.296875 L 4.578125 -14.296875 L 4.578125 -8.5 L 9.5625 -14.296875 L 13.765625 -14.296875 L 8.3125 -8 L 13.953125 0 L 9.765625 0 L 6.015625 -5.421875 L 4.578125 -3.78125 L 4.578125 0 Z M 0.984375 0 "/></g></g></g><g fill="#17344e" fill-opacity="1"><g transform="translate(190.638238, 234.724789)"><g><path d="M -0.015625 0 L 5.15625 -14.296875 L 8.765625 -14.296875 L 13.921875 0 L 10.3125 0 L 9.40625 -2.984375 L 4.5 -2.984375 L 3.578125 0 Z M 5.3125 -5.71875 L 8.59375 -5.71875 L 6.984375 -11 L 6.9375 -11 Z M 5.3125 -5.71875 "/></g></g></g><g fill="#17344e" fill-opacity="1"><g transform="translate(204.572735, 234.724789)"><g><path d="M 0.984375 0 L 0.984375 -14.296875 L 7.3125 -14.296875 C 9.300781 -14.296875 10.863281 -13.675781 12 -12.4375 C 13.132812 -11.207031 13.703125 -9.441406 13.703125 -7.140625 C 13.703125 -4.847656 13.164062 -3.082031 12.09375 -1.84375 C 11.03125 -0.613281 9.503906 0 7.515625 0 Z M 4.578125 -2.9375 L 6.953125 -2.9375 C 8.078125 -2.9375 8.878906 -3.3125 9.359375 -4.0625 C 9.847656 -4.820312 10.09375 -5.847656 10.09375 -7.140625 C 10.09375 -8.441406 9.847656 -9.46875 9.359375 -10.21875 C 8.878906 -10.976562 8.078125 -11.359375 6.953125 -11.359375 L 4.578125 -11.359375 Z M 4.578125 -2.9375 "/></g></g></g><g fill="#17344e" fill-opacity="1"><g transform="translate(218.667174, 234.724789)"><g><path d="M 1 0 L 1 -14.296875 L 4.59375 -14.296875 L 4.59375 0 Z M 1 0 "/></g></g></g><g fill="#17344e" fill-opacity="1"><g transform="translate(72.483868, 250.133076)"><g><path d="M 0.484375 0.859375 L 12.984375 -6.0625 L 18.125 3.25 L 15.5625 4.671875 L 12.15625 -1.5 L 9.40625 0.015625 L 12.1875 5.03125 L 9.625 6.453125 L 6.84375 1.4375 L 2.21875 4 Z M 0.484375 0.859375 "/></g></g></g><g fill="#17344e" fill-opacity="1"><g transform="translate(80.370821, 263.979975)"><g><path d="M -0.015625 -0.015625 L 14.546875 -4.359375 L 16.703125 -1.453125 L 8.28125 11.1875 L 6.140625 8.296875 L 8 5.78125 L 5.078125 1.828125 L 2.125 2.875 Z M 7.75 0.859375 L 9.703125 3.5 L 13 -0.9375 L 12.96875 -0.96875 Z M 7.75 0.859375 "/></g></g></g><g fill="#17344e" fill-opacity="1"><g transform="translate(91.230231, 278.192522)"><g><path d="M 0.6875 0.703125 L 10.890625 -9.3125 L 13.40625 -6.75 L 9.265625 -2.6875 L 16.90625 -3.1875 L 19.84375 -0.1875 L 11.53125 0.328125 L 9.78125 9.953125 L 6.84375 6.96875 L 8.09375 0.5 L 5.90625 0.609375 L 3.203125 3.265625 Z M 0.6875 0.703125 "/></g></g></g><g fill="#17344e" fill-opacity="1"><g transform="translate(103.957322, 290.760132)"><g><path d="M -0.015625 -0.015625 L 12.8125 -8.203125 L 15.671875 -6 L 11.03125 8.484375 L 8.171875 6.28125 L 9.265625 3.375 L 5.375 0.375 L 2.84375 2.1875 Z M 7.703125 -1.296875 L 10.296875 0.703125 L 12.234375 -4.46875 L 12.203125 -4.484375 Z M 7.703125 -1.296875 "/></g></g></g><g fill="#17344e" fill-opacity="1"><g transform="translate(118.30679, 301.447498)"><g><path d="M 0.859375 0.484375 L 7.90625 -11.953125 L 13.40625 -8.828125 C 15.132812 -7.847656 16.1875 -6.539062 16.5625 -4.90625 C 16.945312 -3.28125 16.570312 -1.46875 15.4375 0.53125 C 14.3125 2.53125 12.976562 3.800781 11.4375 4.34375 C 9.90625 4.894531 8.273438 4.679688 6.546875 3.703125 Z M 5.4375 -0.3125 L 7.5 0.859375 C 8.476562 1.421875 9.363281 1.488281 10.15625 1.0625 C 10.945312 0.644531 11.660156 -0.125 12.296875 -1.25 C 12.941406 -2.375 13.238281 -3.382812 13.1875 -4.28125 C 13.132812 -5.175781 12.617188 -5.90625 11.640625 -6.46875 L 9.578125 -7.640625 Z M 5.4375 -0.3125 "/></g></g></g><g fill="#17344e" fill-opacity="1"><g transform="translate(134.00029, 309.852372)"><g><path d="M 0.921875 0.390625 L 6.609375 -12.71875 L 9.90625 -11.28125 L 4.21875 1.828125 Z M 0.921875 0.390625 "/></g></g></g><g fill="#17344e" fill-opacity="1"><g transform="translate(142.303332, 313.305146)"><g/></g></g><g fill="#17344e" fill-opacity="1"><g transform="translate(148.894805, 315.756543)"><g><path d="M 0.953125 0.25 L 4.578125 -13.578125 L 11.28125 -11.828125 C 12.726562 -11.441406 13.769531 -10.769531 14.40625 -9.8125 C 15.050781 -8.851562 15.1875 -7.644531 14.8125 -6.1875 C 14.425781 -4.738281 13.71875 -3.75 12.6875 -3.21875 C 11.65625 -2.695312 10.414062 -2.628906 8.96875 -3.015625 L 5.734375 -3.859375 L 4.421875 1.15625 Z M 6.484375 -6.703125 L 8.984375 -6.046875 C 9.585938 -5.890625 10.085938 -5.882812 10.484375 -6.03125 C 10.890625 -6.175781 11.171875 -6.535156 11.328125 -7.109375 C 11.472656 -7.691406 11.40625 -8.140625 11.125 -8.453125 C 10.84375 -8.773438 10.398438 -9.015625 9.796875 -9.171875 L 7.296875 -9.828125 Z M 6.484375 -6.703125 "/></g></g></g><g fill="#17344e" fill-opacity="1"><g transform="translate(165.350095, 319.805935)"><g><path d="M 0.984375 0.125 L 2.734375 -14.0625 L 9.40625 -13.25 C 10.976562 -13.050781 12.171875 -12.539062 12.984375 -11.71875 C 13.796875 -10.90625 14.117188 -9.832031 13.953125 -8.5 C 13.835938 -7.5625 13.488281 -6.828125 12.90625 -6.296875 C 12.320312 -5.773438 11.570312 -5.46875 10.65625 -5.375 L 10.65625 -5.328125 C 11.226562 -5.148438 11.664062 -4.867188 11.96875 -4.484375 C 12.269531 -4.109375 12.484375 -3.675781 12.609375 -3.1875 C 12.734375 -2.707031 12.796875 -2.210938 12.796875 -1.703125 C 12.804688 -1.203125 12.796875 -0.722656 12.765625 -0.265625 C 12.742188 0.191406 12.734375 0.566406 12.734375 0.859375 C 12.742188 1.148438 12.816406 1.328125 12.953125 1.390625 L 12.921875 1.59375 L 9.21875 1.140625 C 9.101562 1.015625 9.050781 0.8125 9.0625 0.53125 C 9.070312 0.25 9.097656 -0.078125 9.140625 -0.453125 C 9.179688 -0.828125 9.203125 -1.210938 9.203125 -1.609375 C 9.210938 -2.003906 9.164062 -2.378906 9.0625 -2.734375 C 8.96875 -3.097656 8.785156 -3.40625 8.515625 -3.65625 C 8.253906 -3.90625 7.875 -4.0625 7.375 -4.125 L 5.15625 -4.390625 L 4.546875 0.5625 Z M 5.515625 -7.296875 L 7.9375 -7 C 8.644531 -6.914062 9.203125 -6.984375 9.609375 -7.203125 C 10.015625 -7.429688 10.253906 -7.84375 10.328125 -8.4375 C 10.398438 -9.039062 10.265625 -9.5 9.921875 -9.8125 C 9.585938 -10.132812 9.066406 -10.335938 8.359375 -10.421875 L 5.9375 -10.71875 Z M 5.515625 -7.296875 "/></g></g></g><g fill="#17344e" fill-opacity="1"><g transform="translate(182.630303, 321.705376)"><g><path d="M 7.484375 0.171875 C 5.972656 0.203125 4.679688 -0.09375 3.609375 -0.71875 C 2.546875 -1.34375 1.726562 -2.210938 1.15625 -3.328125 C 0.59375 -4.441406 0.296875 -5.71875 0.265625 -7.15625 C 0.242188 -8.59375 0.492188 -9.878906 1.015625 -11.015625 C 1.546875 -12.148438 2.332031 -13.050781 3.375 -13.71875 C 4.414062 -14.382812 5.691406 -14.734375 7.203125 -14.765625 C 8.703125 -14.796875 9.988281 -14.5 11.0625 -13.875 C 12.132812 -13.25 12.957031 -12.378906 13.53125 -11.265625 C 14.101562 -10.148438 14.398438 -8.875 14.421875 -7.4375 C 14.453125 -6 14.203125 -4.710938 13.671875 -3.578125 C 13.140625 -2.441406 12.347656 -1.539062 11.296875 -0.875 C 10.253906 -0.207031 8.984375 0.140625 7.484375 0.171875 Z M 7.4375 -2.765625 C 8.300781 -2.785156 8.976562 -3 9.46875 -3.40625 C 9.96875 -3.820312 10.320312 -4.378906 10.53125 -5.078125 C 10.738281 -5.773438 10.832031 -6.535156 10.8125 -7.359375 C 10.800781 -8.191406 10.675781 -8.945312 10.4375 -9.625 C 10.207031 -10.300781 9.835938 -10.84375 9.328125 -11.25 C 8.816406 -11.65625 8.128906 -11.847656 7.265625 -11.828125 C 6.398438 -11.804688 5.710938 -11.585938 5.203125 -11.171875 C 4.691406 -10.753906 4.335938 -10.203125 4.140625 -9.515625 C 3.941406 -8.828125 3.847656 -8.066406 3.859375 -7.234375 C 3.878906 -6.410156 4 -5.65625 4.21875 -4.96875 C 4.445312 -4.28125 4.820312 -3.734375 5.34375 -3.328125 C 5.875 -2.929688 6.570312 -2.742188 7.4375 -2.765625 Z M 7.4375 -2.765625 "/></g></g></g><g fill="#17344e" fill-opacity="1"><g transform="translate(201.235183, 320.882467)"><g/></g></g><g fill="#17344e" fill-opacity="1"><g transform="translate(208.253942, 320.121745)"><g><path d="M -0.015625 0 L 1.984375 -15.0625 L 5.515625 -15.84375 L 13.59375 -2.96875 L 10.078125 -2.203125 L 8.546875 -4.921875 L 3.75 -3.875 L 3.5 -0.765625 Z M 3.96875 -6.734375 L 7.171875 -7.421875 L 4.484375 -12.234375 L 4.4375 -12.234375 Z M 3.96875 -6.734375 "/></g></g></g><g fill="#17344e" fill-opacity="1"><g transform="translate(225.66827, 316.039564)"><g><path d="M 7 -2.25 C 5.582031 -1.726562 4.273438 -1.59375 3.078125 -1.84375 C 1.890625 -2.09375 0.851562 -2.648438 -0.03125 -3.515625 C -0.914062 -4.390625 -1.609375 -5.503906 -2.109375 -6.859375 C -2.609375 -8.203125 -2.804688 -9.492188 -2.703125 -10.734375 C -2.597656 -11.972656 -2.171875 -13.070312 -1.421875 -14.03125 C -0.679688 -15 0.394531 -15.742188 1.8125 -16.265625 C 3.03125 -16.710938 4.140625 -16.867188 5.140625 -16.734375 C 6.148438 -16.597656 7.039062 -16.21875 7.8125 -15.59375 C 8.582031 -14.976562 9.210938 -14.164062 9.703125 -13.15625 L 6.328125 -11.90625 C 5.929688 -12.601562 5.445312 -13.117188 4.875 -13.453125 C 4.300781 -13.785156 3.570312 -13.789062 2.6875 -13.46875 C 1.945312 -13.1875 1.421875 -12.785156 1.109375 -12.265625 C 0.804688 -11.742188 0.675781 -11.128906 0.71875 -10.421875 C 0.769531 -9.710938 0.953125 -8.941406 1.265625 -8.109375 C 1.578125 -7.265625 1.941406 -6.554688 2.359375 -5.984375 C 2.785156 -5.410156 3.285156 -5.023438 3.859375 -4.828125 C 4.429688 -4.640625 5.085938 -4.6875 5.828125 -4.96875 C 6.734375 -5.289062 7.289062 -5.757812 7.5 -6.375 C 7.71875 -7 7.742188 -7.710938 7.578125 -8.515625 L 10.953125 -9.765625 C 11.234375 -8.679688 11.285156 -7.648438 11.109375 -6.671875 C 10.941406 -5.703125 10.519531 -4.832031 9.84375 -4.0625 C 9.164062 -3.300781 8.21875 -2.695312 7 -2.25 Z M 7 -2.25 "/></g></g></g><g fill="#17344e" fill-opacity="1"><g transform="translate(242.347385, 309.579702)"><g><path d="M -0.015625 0 L -2.21875 -15.03125 L 0.953125 -16.75 L 12.265625 -6.59375 L 9.078125 -4.890625 L 6.875 -7.078125 L 2.5625 -4.75 L 3.15625 -1.6875 Z M 1.96875 -7.546875 L 4.859375 -9.09375 L 0.953125 -13 L 0.90625 -12.96875 Z M 1.96875 -7.546875 "/></g></g></g><g fill="#17344e" fill-opacity="1"><g transform="translate(257.973933, 300.865993)"><g><path d="M 0.796875 -0.578125 L -7.671875 -12.109375 L -2.578125 -15.859375 C -0.972656 -17.035156 0.648438 -17.460938 2.296875 -17.140625 C 3.953125 -16.816406 5.460938 -15.722656 6.828125 -13.859375 C 8.179688 -12.015625 8.789062 -10.28125 8.65625 -8.65625 C 8.53125 -7.03125 7.664062 -5.628906 6.0625 -4.453125 Z M 1.953125 -5.078125 L 3.875 -6.484375 C 4.78125 -7.148438 5.203125 -7.925781 5.140625 -8.8125 C 5.085938 -9.707031 4.679688 -10.675781 3.921875 -11.71875 C 3.148438 -12.769531 2.34375 -13.457031 1.5 -13.78125 C 0.664062 -14.101562 -0.203125 -13.929688 -1.109375 -13.265625 L -3.03125 -11.859375 Z M 1.953125 -5.078125 "/></g></g></g><g fill="#17344e" fill-opacity="1"><g transform="translate(272.301888, 289.957842)"><g><path d="M 0.703125 -0.6875 L -9.21875 -10.96875 L -1.421875 -18.484375 L 0.609375 -16.375 L -4.59375 -11.34375 L -2.828125 -9.515625 L 1.65625 -13.859375 L 3.703125 -11.75 L -0.78125 -7.40625 L 1.25 -5.28125 L 6.546875 -10.40625 L 8.59375 -8.296875 Z M 0.703125 -0.6875 "/></g></g></g><g fill="#17344e" fill-opacity="1"><g transform="translate(284.116603, 278.359133)"><g><path d="M 0.609375 -0.78125 L -10.703125 -9.53125 L -8.03125 -13 L 0.96875 -9.75 L 1 -9.78125 L -4.40625 -17.6875 L -1.703125 -21.171875 L 9.609375 -12.421875 L 7.53125 -9.734375 L 0.484375 -15.1875 L 0.453125 -15.15625 L 5.875 -7.59375 L 4.328125 -5.59375 L -4.34375 -8.953125 L -4.375 -8.90625 L 2.671875 -3.453125 Z M 0.609375 -0.78125 "/></g></g></g><g fill="#17344e" fill-opacity="1"><g transform="translate(296.433691, 261.751677)"><g><path d="M 2.359375 -4.203125 L -2.25 -6.78125 L -12.46875 -7 L -10.609375 -10.3125 L -4.125 -9.859375 L -4.09375 -9.90625 L -7.859375 -15.21875 L -6 -18.53125 L -0.5 -9.921875 L 4.109375 -7.34375 Z M 2.359375 -4.203125 "/></g></g></g></svg>